Coordinates
version=1
nRows=20
nColumns=34
inDegrees=yes

Units are S.I. units (second, meters, Newtons, ...)
Angles are in degrees.

endheader
time	pelvis_tilt	pelvis_list	pelvis_rotation	pelvis_tx	pelvis_ty	pelvis_tz	hip_flexion_r	hip_adduction_r	hip_rotation_r	knee_angle_r	ankle_angle_r	subtalar_angle_r	mtp_angle_r	hip_flexion_l	hip_adduction_l	hip_rotation_l	knee_angle_l	socket_flexion	socket_adduction	socket_rotation	socket_tx	socket_ty	socket_tz	pros_ankle_rx	pros_ankle_ry	pros_ankle_rz	pros_ankle_tx	pros_ankle_ty	pros_ankle_tz	foot_flex	lumbar_extension	lumbar_bending	lumbar_rotation
      0.00000000	     -2.35707880	     -8.86568929	     -5.47824592	     -0.78575325	      1.04405034	      0.36609380	    -16.60834180	      9.23592460	     -3.48853839	     -3.22499213	      4.09889345	     22.79782726	     29.06520527	     18.68513051	     -8.73625194	      2.24927553	      1.24295835	     -1.41306516	     -2.02717542	     -2.63181156	     -0.03357215	     -0.00081653	      0.01171389	      0.00000000	      0.00000000	      0.00000000	      0.00000000	      0.00000000	      0.00000000	      0.09372630	     -6.41507219	      6.45397874	    -10.02099606
      0.00416667	     -2.37396219	     -8.88771308	     -5.55413356	     -0.78091361	      1.04312018	      0.36606886	    -16.80736981	      9.18062641	     -3.43847018	     -3.34751187	      4.09617114	     22.82207296	     29.07683999	     18.76411388	     -8.72125699	      2.28983774	      1.11859968	     -1.28788793	     -2.02803985	     -2.69308632	     -0.03318656	     -0.00124478	      0.01185122	      0.00000000	      0.00000000	      0.00000000	      0.00000000	      0.00000000	      0.00000000	     -0.22814470	     -6.37378054	      6.41262917	    -10.01136071
      0.00833333	     -2.40300099	     -8.90972313	     -5.63681123	     -0.77588717	      1.04215250	      0.36601688	    -17.00297510	      9.12033549	     -3.37648204	     -3.46794849	      4.10772506	     22.86304904	     29.09680423	     18.85016901	     -8.70638582	      2.34193150	      0.98500030	     -1.15444680	     -2.03415713	     -2.75119887	     -0.03282474	     -0.00170226	      0.01199239	      0.00000000	      0.00000000	      0.00000000	      0.00000000	      0.00000000	      0.00000000	     -0.59646107	     -6.34870766	      6.36252977	     -9.99340169
      0.01250000	     -2.43566218	     -8.92668554	     -5.72559550	     -0.77068808	      1.04114393	      0.36601451	    -17.20179486	      9.05383925	     -3.31270765	     -3.59792803	      4.12547375	     22.91179459	     29.12235693	     18.93757361	     -8.69608904	      2.40001387	      0.83664094	     -1.00714824	     -2.04334750	     -2.80789193	     -0.03248230	     -0.00222283	      0.01210934	      0.00000000	      0.00000000	      0.00000000	      0.00000000	      0.00000000	      0.00000000	     -0.96743753	     -6.32378074	      6.30572263	     -9.97107628
      0.01666667	     -2.51221166	     -8.95423795	     -5.79175182	     -0.76540576	      1.04008417	      0.36594810	    -17.33620288	      9.01582214	     -3.20949971	     -3.76344226	      4.20642039	     23.04645813	     29.21350647	     19.08922871	     -8.66926108	      2.48207514	      0.67694987	     -0.84999463	     -2.05752533	     -2.87100928	     -0.03204851	     -0.00275900	      0.01241494	      0.00000000	      0.00000000	      0.00000000	      0.00000000	      0.00000000	      0.00000000	     -1.46189277	     -6.36071855	      6.20838959	     -9.89593154
      0.02083333	     -2.52812811	     -8.96180862	     -5.88695715	     -0.75992536	      1.03904838	      0.36592446	    -17.54730051	      8.92506760	     -3.16942754	     -3.92568586	      4.21293307	     23.09142779	     29.24756009	     19.15212794	     -8.66572746	      2.52663562	      0.49008487	     -0.66524036	     -2.05754568	     -2.93436789	     -0.03171594	     -0.00344680	      0.01231493	      0.00000000	      0.00000000	      0.00000000	      0.00000000	      0.00000000	      0.00000000	     -1.75368436	     -6.29607174	      6.16724464	     -9.87378900
      0.02500000	     -2.54999650	     -8.97018822	     -5.96889485	     -0.75437009	      1.03802833	      0.36588809	    -17.74071716	      8.84199140	     -3.10577629	     -4.10590502	      4.22288793	     23.15344244	     29.29100418	     19.22621875	     -8.65662945	      2.58299016	      0.29293521	     -0.47236171	     -2.05305533	     -2.99026172	     -0.03130527	     -0.00418509	      0.01227681	      0.00000000	      0.00000000	      0.00000000	      0.00000000	      0.00000000	      0.00000000	     -2.14267181	     -6.25170930	      6.09448683	     -9.84403318
      0.02916667	     -2.59013578	     -8.98365249	     -6.02558935	     -0.74876395	      1.03697561	      0.36581428	    -17.89965666	      8.77958414	     -3.02895480	     -4.32392967	      4.24620565	     23.25339585	     29.36849483	     19.33362728	     -8.63047009	      2.63011335	      0.08314271	     -0.26751407	     -2.03794934	     -3.05583751	     -0.03086131	     -0.00502085	      0.01235056	      0.00000000	      0.00000000	      0.00000000	      0.00000000	      0.00000000	      0.00000000	     -2.59980193	     -6.23977579	      5.98152916	     -9.79250840
      0.03333333	     -2.91837252	     -8.93340792	     -6.11803990	     -0.74296970	      1.03536715	      0.36571796	    -17.43079915	      8.58497653	     -3.77260876	     -5.13500823	      4.52319186	     24.79988726	     31.40400821	     19.95591940	     -8.49481092	      2.43501125	     -0.28690938	      0.05129016	     -2.13762185	     -2.77597072	     -0.02864267	     -0.00588095	      0.01316480	      0.00000000	      0.00000000	      0.00000000	      0.00000000	      0.00000000	      0.00000000	     -2.97119384	     -5.89613106	      5.83129267	     -9.61041455
      0.03750000	     -2.92011509	     -8.92163086	     -6.18902185	     -0.73716546	      1.03434909	      0.36565287	    -17.64804069	      8.47637533	     -3.71617243	     -5.32085408	      4.49637563	     24.79421082	     31.43746707	     19.97377707	     -8.48888317	      2.49705732	     -0.52034080	      0.27805675	     -2.13332426	     -2.81972674	     -0.02839894	     -0.00689196	      0.01283778	      0.00000000	      0.00000000	      0.00000000	      0.00000000	      0.00000000	      0.00000000	     -3.24645736	     -5.84847903	      5.77853566	     -9.60899519
      0.04166667	     -2.91714926	     -8.90945867	     -6.24139934	     -0.73139894	      1.03339759	      0.36557867	    -17.84674282	      8.37854672	     -3.64103317	     -5.53922725	      4.46198877	     24.79969670	     31.48132909	     20.01046803	     -8.47819985	      2.55329322	     -0.77611649	      0.52498948	     -2.11780444	     -2.87128247	     -0.02794859	     -0.00791552	      0.01249495	      0.00000000	      0.00000000	      0.00000000	      0.00000000	      0.00000000	      0.00000000	     -3.56705568	     -5.82012013	      5.67867898	     -9.60046286
      0.04583333	     -2.92906498	     -8.89911545	     -6.27381214	     -0.72569785	      1.03249864	      0.36548986	    -17.98481988	      8.29630861	     -3.56859235	     -5.82266179	      4.41776434	     24.80709302	     31.57359682	     20.08708078	     -8.45381016	      2.59092792	     -1.05456827	      0.79281028	     -2.09728756	     -2.92479261	     -0.02739118	     -0.00892395	      0.01224632	      0.00000000	      0.00000000	      0.00000000	      0.00000000	      0.00000000	      0.00000000	     -3.91677790	     -5.86497442	      5.50254742	     -9.57812829
      0.05000000	     -3.01618831	     -8.74019840	     -6.30837449	     -0.71979735	      1.03143590	      0.36535444	    -17.83863656	      7.99381776	     -4.11189642	     -6.43010067	      4.32630524	     25.54045001	     34.88132404	     20.57854080	     -8.05832215	      1.91330087	     -1.58500204	      1.16491945	     -2.35634764	     -2.16858957	     -0.02387093	     -0.00967125	      0.01446633	      0.00000000	      0.00000000	      0.00000000	      0.00000000	      0.00000000	      0.00000000	     -4.17174443	     -5.84012308	      5.16840671	     -9.53391334
      0.05416667	     -3.02560511	     -8.70652000	     -6.35337356	     -0.71386614	      1.03058340	      0.36529056	    -18.01669102	      7.87827708	     -4.04103129	     -6.64267545	      4.26935956	     25.53098141	     34.89642619	     20.55348156	     -8.06544590	      1.97390018	     -1.84776346	      1.42237882	     -2.33301599	     -2.20508085	     -0.02381189	     -0.01079122	      0.01376826	      0.00000000	      0.00000000	      0.00000000	      0.00000000	      0.00000000	      0.00000000	     -4.30674393	     -5.77788367	      5.11404532	     -9.53539052
      0.05833333	     -2.98138871	     -8.67569175	     -6.36574777	     -0.70809354	      1.02983482	      0.36515031	    -18.17853043	      7.77335184	     -3.94544142	     -6.97524918	      4.16814449	     25.51100323	     34.92713062	     20.56969474	     -8.05704611	      2.01501403	     -2.16168924	      1.72411517	     -2.27467582	     -2.27884660	     -0.02298482	     -0.01195672	      0.01301470	      0.00000000	      0.00000000	      0.00000000	      0.00000000	      0.00000000	      0.00000000	     -4.49653724	     -5.73288933	      4.97586223	     -9.53272044
      0.06250000	     -2.99865807	     -8.64379846	     -6.41470224	     -0.70252502	      1.02909594	      0.36511817	    -18.13991623	      7.65910339	     -3.94879213	     -7.52668893	      3.98234500	     25.40500234	     35.05409682	     20.69652577	     -8.05861641	      2.02478976	     -2.51366787	      2.05658489	     -2.23764972	     -2.34065823	     -0.02183964	     -0.01299809	      0.01240835	      0.00000000	      0.00000000	      0.00000000	      0.00000000	      0.00000000	      0.00000000	     -4.66602516	     -5.92063690	      4.63593216	     -9.52362497
      0.06666667	     -3.14525609	     -8.45051345	     -6.42698444	     -0.69660668	      1.02815842	      0.36493746	    -17.86589163	      7.35135129	     -4.37720331	     -8.23665783	      3.85820377	     25.83488782	     37.37970208	     21.25008451	     -7.65110695	      1.32445859	     -3.07120725	      2.47713169	     -2.48917841	     -1.61969143	     -0.01815523	     -0.01353930	      0.01441733	      0.00000000	      0.00000000	      0.00000000	      0.00000000	      0.00000000	      0.00000000	     -4.74324343	     -5.69360518	      4.37164568	     -9.55443153
      0.07083333	     -3.09961480	     -8.40734770	     -6.42158703	     -0.69084429	      1.02760494	      0.36478923	    -17.95354705	      7.24137029	     -4.32279544	     -8.67042989	      3.68839187	     25.74377551	     37.45808427	     21.24281012	     -7.65061203	      1.37810857	     -3.40018854	      2.78933876	     -2.42977448	     -1.66926367	     -0.01732701	     -0.01457252	      0.01352694	      0.00000000	      0.00000000	      0.00000000	      0.00000000	      0.00000000	      0.00000000	     -4.78981634	     -5.75198054	      4.16608268	     -9.55876796
      0.07500000	     -3.08158027	     -8.31786358	     -6.41146710	     -0.68516213	      1.02708725	      0.36467109	    -17.92000161	      7.08602808	     -4.34587404	     -9.24817498	      3.47529510	     25.58176869	     37.63016461	     21.28415189	     -7.58735099	      1.37964172	     -3.74305787	      3.10962596	     -2.37440708	     -1.68624093	     -0.01638295	     -0.01545115	      0.01282565	      0.00000000	      0.00000000	      0.00000000	      0.00000000	      0.00000000	      0.00000000	     -4.81268322	     -5.87054692	      3.92194876	     -9.58037300
      0.07916667	     -3.03046344	     -8.24740888	     -6.34930339	     -0.67923094	      1.02666471	      0.36448791	    -18.04349577	      6.98689850	     -4.23643136	     -9.60755587	      3.35973342	     25.55510022	     37.67100219	     21.23214484	     -7.54586644	      1.42503546	     -4.04938123	      3.40170726	     -2.29780416	     -1.69152918	     -0.01569727	     -0.01641497	      0.01192230	      0.00000000	      0.00000000	      0.00000000	      0.00000000	      0.00000000	      0.00000000	     -4.84228624	     -5.77886448	      3.83611271	     -9.58798134
